<?xml version="1.0" encoding="UTF-8"?>
<!DOCTYPE svg PUBLIC "-//W3C//DTD SVG 1.1//EN" "http://www.w3.org/Graphics/SVG/1.1/DTD/svg11.dtd">
<!-- Creator: CorelDRAW -->
<svg xmlns="http://www.w3.org/2000/svg" xml:space="preserve" width="2.66666in" height="2.66666in" version="1.1" style="shape-rendering:geometricPrecision; text-rendering:geometricPrecision; image-rendering:optimizeQuality; fill-rule:evenodd; clip-rule:evenodd"
viewBox="0 0 2666.66 2666.66"
 xmlns:xlink="http://www.w3.org/1999/xlink"
 xmlns:xodm="http://www.corel.com/coreldraw/odm/2003">
 <defs>
  <style type="text/css">
   <![CDATA[
    .fil0 {fill:#FFCC00}
    .fil1 {fill:#FFFFCC;fill-rule:nonzero}
   ]]>
  </style>
 </defs>
 <g id="Layer_x0020_1">
  <metadata id="CorelCorpID_0Corel-Layer"/>
  <g id="_1979341836176">
   <path class="fil0" d="M1968.67 337.47c-45.66,40.52 -88.57,84.09 -128.36,130.39 79.34,-35.29 161.96,-62.76 246.59,-82.12 109.97,51.14 212.78,117.12 305.18,195.68 -209.59,3.92 -415.96,57.44 -601.56,155.12 219.33,-9.28 440.44,36.11 638.63,130.41 -67.01,195.09 -177.5,369.96 -319.9,513.05 -164.19,-104.45 -349.71,-171.91 -542.62,-198 141.93,92.3 265.54,211.36 363.8,349.07 -99.73,70.44 -209.44,127.69 -326.59,169.22 -142.09,-73.83 -270.47,-173.08 -378.04,-291.71 56.39,186.02 110.91,277.58 195.15,394.68 -49.34,24.77 -300.46,-1.57 -363.38,-13.05 50.89,-207.74 -69.37,-424.54 -280.47,-485.79 -89.82,21.43 -169.59,73.28 -226.04,146.13 -5.57,60.86 -7.04,122.19 -4.41,183.26 -111.86,-56.4 -215.54,-128.32 -307.64,-213.21 24.63,-127.02 67.57,-249.92 127.41,-364.67 -13.83,-26.03 -26.85,-52.57 -38.99,-79.57 317.96,-596.95 1020.48,-858.39 1641.26,-638.87z"/>
   <g>
    <path class="fil1" d="M2395.94 2406.17l-174.04 0c-13.22,0 -19.83,-6.61 -19.83,-19.83l0 -64.44c0,-13.22 6.61,-19.83 19.83,-19.83l148.15 0c4.77,0 8.36,-1.56 10.74,-4.68 2.39,-3.13 3.58,-6.88 3.58,-11.29 0,-6.25 -1.19,-10.83 -3.58,-13.77 -2.38,-2.94 -5.97,-4.59 -10.74,-4.96l-82.61 -11.57c-25.7,-4.04 -46.35,-12.57 -61.95,-25.61 -15.61,-13.04 -23.41,-34.97 -23.41,-65.82l0 -57.83c0,-31.57 10.09,-55.62 30.29,-72.15 20.19,-16.52 48.09,-24.78 83.71,-24.78l154.2 0c13.22,0 19.83,6.61 19.83,19.83l0 65.54c0,13.22 -6.61,19.83 -19.83,19.83l-128.33 0c-9.91,0 -14.87,5.51 -14.87,16.52 0,10.65 4.96,16.52 14.87,17.63l82.07 11.01c17.26,2.57 32.31,7.07 45.16,13.49 12.85,6.43 22.85,15.87 30.01,28.37 7.17,12.48 10.74,29.01 10.74,49.57l0 57.83c0,31.2 -10.1,55.16 -30.3,71.87 -20.19,16.7 -48.09,25.06 -83.71,25.06zm-819.51 0l-211.48 0c-13.22,0 -19.83,-6.61 -19.83,-19.83l0 -356.88c0,-13.22 6.61,-19.83 19.83,-19.83l175.69 0c35.98,0 62.6,6.79 79.86,20.37 17.25,13.59 25.88,34.89 25.88,63.89l0 26.44c0,30.48 -10.83,50.3 -32.49,59.48 23.86,2.2 41.4,10.19 52.59,23.96 11.2,13.77 16.8,34.23 16.8,61.41l0 50.67c0,30.84 -8.63,53.61 -25.89,68.29 -17.26,14.69 -44.24,22.03 -80.96,22.03zm-107.39 -158.61l0 64.99 71.6 0c13.95,0 20.93,-7.34 20.93,-22.03l0 -21.48c0,-14.31 -6.97,-21.48 -20.93,-21.48l-71.6 0zm0 -144.3l0 59.48 46.82 0c13.95,0 20.93,-7.35 20.93,-22.02l0 -15.43c0,-14.69 -6.98,-22.03 -20.93,-22.03l-46.82 0zm377.26 302.91l-82.06 0c-13.22,0 -19.83,-6.61 -19.83,-19.83l0 -356.88c0,-13.22 6.61,-19.83 19.83,-19.83l88.67 0c11.02,0 19.47,5.5 25.34,16.52l49.56 89.77c1.83,3.3 3.39,5.69 4.69,7.16 1.28,1.47 3.02,2.2 5.23,2.2l4.95 0c2.2,0 3.95,-0.74 5.23,-2.2 1.28,-1.47 2.85,-3.86 4.68,-7.16l49.02 -89.77c5.87,-11.02 14.31,-16.52 25.33,-16.52l89.22 0c13.22,0 19.83,6.61 19.83,19.83l0 356.88c0,13.22 -6.61,19.83 -19.83,19.83l-84.81 0c-13.21,0 -19.83,-6.61 -19.83,-19.83l0 -193.86 -32.5 60.04c-6.24,11.74 -15.97,17.62 -29.19,17.62l-22.03 0c-13.22,0 -22.95,-5.87 -29.19,-17.62l-32.5 -60.04 0 193.86c0,13.22 -6.61,19.83 -19.83,19.83z"/>
    <path class="fil1" d="M1167.33 2406.17l-185.6 0c-13.22,0 -19.83,-6.61 -19.83,-19.83l0 -356.88c0,-13.22 6.61,-19.83 19.83,-19.83l185.6 0c46.26,0 80.41,9.18 102.44,27.53 22.04,18.36 33.04,46.64 33.04,84.82l0 171.83c0,38.18 -11.01,66.45 -33.04,84.81 -22.03,18.36 -56.17,27.54 -102.44,27.54zm-701.65 0l-173.48 0c-46.26,0 -80.41,-9.18 -102.44,-27.54 -22.03,-18.36 -33.04,-46.63 -33.04,-84.81l0 -171.83c0,-38.19 11.01,-66.46 33.04,-84.82 22.03,-18.35 56.18,-27.53 102.44,-27.53l137.68 0c13.22,0 19.83,6.61 19.83,19.83l0 66.64c0,13.21 -6.61,19.83 -19.83,19.83l-114.55 0c-22.4,0 -33.6,9.18 -33.6,27.54l0 131.63c0,17.99 8.44,26.99 25.33,26.99l53.42 0 0 -85.92c0,-13.22 6.61,-19.82 19.83,-19.82l85.37 0c13.21,0 19.83,6.61 19.83,19.82l0 170.18c0,13.22 -6.61,19.83 -19.83,19.83zm191.66 0l-84.82 0c-13.21,0 -19.82,-6.61 -19.82,-19.83l0 -356.88c0,-13.22 6.61,-19.83 19.82,-19.83l183.4 0c27.54,0 49.2,3.85 64.99,11.56 15.78,7.71 26.99,18.45 33.59,32.22 6.61,13.76 9.91,29.83 9.91,48.19l0 25.33c0,15.43 -2.2,28.45 -6.61,39.1 -4.41,10.65 -12.49,18.54 -24.24,23.68 20.2,2.2 36.35,10.28 48.47,24.23 12.12,13.95 18.17,32.5 18.17,55.63l0 116.76c0,13.22 -6.61,19.83 -19.83,19.83l-85.36 0c-13.22,0 -19.83,-6.61 -19.83,-19.83l0 -84.26c0,-8.44 -1.55,-14.51 -4.68,-18.18 -3.12,-3.67 -8.54,-5.51 -16.25,-5.51l-77.1 0 0 107.95c0,13.22 -6.61,19.83 -19.82,19.83zm19.82 -297.4l0 70.49 41.31 0c9.54,0 15.97,-2.48 19.27,-7.43 3.3,-4.96 4.96,-11.11 4.96,-18.44l0 -18.73c0,-7.35 -1.66,-13.5 -4.96,-18.45 -3.3,-4.95 -9.73,-7.43 -19.27,-7.43l-41.31 0zm409.76 6.06l0 187.25 65.54 0c17.26,0 25.89,-9 25.89,-26.99l0 -133.83c0,-17.62 -8.63,-26.43 -25.89,-26.43l-65.54 0z"/>
   </g>
  </g>
 </g>
</svg>
